<svg xmlns="http://www.w3.org/2000/svg" version="1.1" xmlns:xlink="http://www.w3.org/1999/xlink" xmlns:svgjs="http://svgjs.dev/svgjs" width="1440" height="250" preserveAspectRatio="none" viewBox="0 0 1440 250"><g mask="url(&quot;#SvgjsMask1050&quot;)" fill="none"><path d="M23 250L273 0L504 0L254 250z" fill="url(&quot;#SvgjsLinearGradient1051&quot;)"></path><path d="M262.6 250L512.6 0L845.6 0L595.6 250z" fill="url(&quot;#SvgjsLinearGradient1051&quot;)"></path><path d="M492.20000000000005 250L742.2 0L805.2 0L555.2 250z" fill="url(&quot;#SvgjsLinearGradient1051&quot;)"></path><path d="M756.8000000000001 250L1006.8000000000001 0L1294.8000000000002 0L1044.8000000000002 250z" fill="url(&quot;#SvgjsLinearGradient1051&quot;)"></path><path d="M1427 250L1177 0L988 0L1238 250z" fill="url(&quot;#SvgjsLinearGradient1052&quot;)"></path><path d="M1160.4 250L910.4000000000001 0L779.9000000000001 0L1029.9 250z" fill="url(&quot;#SvgjsLinearGradient1052&quot;)"></path><path d="M940.8 250L690.8 0L639.8 0L889.8 250z" fill="url(&quot;#SvgjsLinearGradient1052&quot;)"></path><path d="M697.1999999999999 250L447.19999999999993 0L304.69999999999993 0L554.6999999999999 250z" fill="url(&quot;#SvgjsLinearGradient1052&quot;)"></path><path d="M1222.5545302983787 250L1440 32.554530298378694L1440 250z" fill="url(&quot;#SvgjsLinearGradient1051&quot;)"></path><path d="M0 250L217.4454697016213 250L 0 32.554530298378694z" fill="url(&quot;#SvgjsLinearGradient1052&quot;)"></path></g><defs><mask id="SvgjsMask1050"><rect width="1440" height="250" fill="#ffffff"></rect></mask><linearGradient x1="0%" y1="100%" x2="100%" y2="0%" id="SvgjsLinearGradient1051"><stop stop-color="rgba(9, 65, 76, 0.37)" offset="0"></stop><stop stop-opacity="0" stop-color="rgba(9, 65, 76, 0.37)" offset="0.66"></stop></linearGradient><linearGradient x1="100%" y1="100%" x2="0%" y2="0%" id="SvgjsLinearGradient1052"><stop stop-color="rgba(9, 65, 76, 0.37)" offset="0"></stop><stop stop-opacity="0" stop-color="rgba(9, 65, 76, 0.37)" offset="0.66"></stop></linearGradient></defs></svg>